<svg version="1" xmlns="http://www.w3.org/2000/svg" width="682.667" height="682.667" viewBox="0 0 512.000000 512.000000"><path d="M0 256v256h512V0H0v256zM262.8 26.4c1.5.8 52.5 51.3 113.4 112.3 98.4 98.5 110.7 111.2 111.3 114.5.4 2.1.4 5 .1 6.5-.5 1.9-35.8 37.9-111.9 114.1-61.2 61.2-112.4 112-113.9 112.8-3.6 1.9-8.8 1.8-11.8-.2-4.1-2.7-222-220.7-223.6-223.6-.8-1.5-1.4-4.9-1.4-7.5v-4.8l112.8-112.7L250.5 25h4.8c2.6 0 6 .6 7.5 1.4z"/><path d="M164.7 164.8L73 256.5l91.5 91.5 91.5 91.5 91.8-91.8 91.7-91.7-91.5-91.5L256.5 73l-91.8 91.8z"/></svg>