<svg xmlns="http://www.w3.org/2000/svg" width="25" height="21"><path fill="#FFF" fill-rule="evenodd" d="M24.365 3.17c-.738 1.02-1.547 1.846-2.426 2.478v.633c0 1.442-.193 2.742-.58 3.903a13.457 13.457 0 0 1-1.74 3.744c-.668 1.09-1.582 2.162-2.742 3.217a12.477 12.477 0 0 1-3.902 2.162c-1.477.562-3.094.843-4.852.843-2.707 0-5.203-.738-7.488-2.214.492.07.879.105 1.16.105 2.215 0 4.236-.703 6.064-2.11a4.628 4.628 0 0 1-2.847-.949 4.809 4.809 0 0 1-1.74-2.425c.492.07.808.105.949.105.457 0 .879-.07 1.265-.21-1.09-.212-2.021-.757-2.795-1.636a4.818 4.818 0 0 1-1.107-3.11v-.054c.703.387 1.441.58 2.215.58a4.56 4.56 0 0 1-1.582-1.687c-.387-.668-.58-1.441-.58-2.32 0-.914.21-1.74.633-2.479A13.658 13.658 0 0 0 6.7 5.332a13.94 13.94 0 0 0 5.642 1.53 4.814 4.814 0 0 1-.158-1.16c0-1.337.474-2.48 1.423-3.429.95-.949 2.11-1.423 3.48-1.423 1.407 0 2.585.51 3.534 1.529a10.11 10.11 0 0 0 3.111-1.16c-.351 1.16-1.072 2.056-2.162 2.69.844-.106 1.776-.352 2.795-.74z"/></svg>