<svg xmlns="http://www.w3.org/2000/svg" width="25" height="23"><path fill="#FFF" fill-rule="evenodd" d="M6.172 7.44v14.923H1.215V7.44h4.957zm.316-4.641c0 .773-.246 1.388-.738 1.846-.563.492-1.248.738-2.057.738-.843 0-1.511-.246-2.004-.738-.492-.458-.738-1.073-.738-1.846 0-.774.246-1.389.738-1.846C2.252.461 2.937.215 3.746.215c.774 0 1.441.246 2.004.738.492.492.738 1.108.738 1.846zm17.56 10.969v8.595h-4.956v-8.015c0-1.055-.194-1.881-.58-2.479-.422-.598-1.055-.896-1.899-.896-.597 0-1.125.175-1.582.527a3.08 3.08 0 0 0-1.002 1.318c-.105.282-.158.686-.158 1.213v8.332H8.914c.035-2.672.053-5.924.053-9.756V8.125l-.053-.686h4.957v2.163c.352-.528.545-.809.58-.844.176-.246.475-.51.897-.791a4.35 4.35 0 0 1 1.265-.686c.457-.14 1.037-.21 1.74-.21 1.723 0 3.112.562 4.167 1.687 1.02 1.125 1.529 2.795 1.529 5.01z"/></svg>